<?xml version="1.0" encoding="UTF-8" standalone="no"?>
<svg xmlns:dc="http://purl.org/dc/elements/1.1/" xmlns:cc="http://creativecommons.org/ns#" xmlns:rdf="http://www.w3.org/1999/02/22-rdf-syntax-ns#" xmlns:svg="http://www.w3.org/2000/svg" xmlns="http://www.w3.org/2000/svg" xmlns:xlink="http://www.w3.org/1999/xlink" xmlns:sodipodi="http://sodipodi.sourceforge.net/DTD/sodipodi-0.dtd" xmlns:inkscape="http://www.inkscape.org/namespaces/inkscape" inkscape:version="1.0 (4035a4fb49, 2020-05-01)" sodipodi:docname="not-ok.svg" id="svg35" version="1.1" height="48" width="48">
  <title id="title850">Tango style red failed icon</title>
  <metadata id="metadata39">
    <rdf:RDF>
      <cc:Work rdf:about="">
        <dc:format>image/svg+xml</dc:format>
        <dc:type rdf:resource="http://purl.org/dc/dcmitype/StillImage"/>
        <dc:title>Tango style red failed icon</dc:title>
        <dc:description>Red icon with shadow indicating something is wrong, missing or failed. Colors and style are similar to Tango open-icon design</dc:description>
        <cc:license rdf:resource="http://creativecommons.org/publicdomain/zero/1.0/"/>
        <dc:creator>
          <cc:Agent>
            <dc:title>Sebastian Roith</dc:title>
          </cc:Agent>
        </dc:creator>
      </cc:Work>
      <cc:License rdf:about="http://creativecommons.org/publicdomain/zero/1.0/">
        <cc:permits rdf:resource="http://creativecommons.org/ns#Reproduction"/>
        <cc:permits rdf:resource="http://creativecommons.org/ns#Distribution"/>
        <cc:permits rdf:resource="http://creativecommons.org/ns#DerivativeWorks"/>
      </cc:License>
    </rdf:RDF>
  </metadata>
  <sodipodi:namedview inkscape:document-rotation="0" inkscape:current-layer="svg35" inkscape:cy="-4.937872" inkscape:cx="-13.817096" inkscape:zoom="4" inkscape:guide-bbox="true" showguides="true" showgrid="false" id="namedview37" inkscape:window-height="480" inkscape:window-width="640" inkscape:pageshadow="2" inkscape:pageopacity="0" guidetolerance="10" gridtolerance="10" objecttolerance="10" borderopacity="1" bordercolor="#666666" pagecolor="#ffffff"/>
  <defs id="defs21">
    <linearGradient id="c">
      <stop id="stop2" stop-color="#fff" offset="0"/>
      <stop id="stop4" stop-opacity="0" stop-color="#fff" offset="1"/>
    </linearGradient>
    <linearGradient id="b">
      <stop id="stop7" offset="0"/>
      <stop id="stop9" stop-opacity="0" offset="1"/>
    </linearGradient>
    <linearGradient id="a">
      <stop id="stop12" stop-opacity="0" stop-color="#f5a108" offset="0"/>
      <stop id="stop14" stop-opacity=".743" stop-color="#fefdc3" offset="1"/>
    </linearGradient>
    <linearGradient xlink:href="#a" gradientUnits="userSpaceOnUse" gradientTransform="matrix(2.0123,0,0,1.2984692,0.835,-2.7914021)" y2="6.1" y1="32.757" x2="6.358" x1="11.355" id="f"/>
    <radialGradient xlink:href="#b" gradientUnits="userSpaceOnUse" gradientTransform="matrix(2.2829101,0,0,0.62885442,-18.102001,20.855361)" fy="25.531" fx="17.313" r="9.688" cy="25.531" cx="17.313" id="d"/>
    <linearGradient xlink:href="#c" gradientUnits="userSpaceOnUse" gradientTransform="translate(2.335 2.178) scale(.9034)" y2="-6.889" y1="29.173" x2="17.445" x1="34.798" id="g"/>
  </defs>
  <path inkscape:connector-curvature="0" id="path23" style="color:#000000;opacity:0.40900005;fill:url(#d);stroke-width:2.18290997;marker:none" d="m 43.536571,36.911171 a 22.115691,6.0920775 0 1 1 -44.23138216,0 22.115691,6.0920775 0 1 1 44.23138216,0 z"/>
  <path d="m 34.784742,5.4182262 q 0.660167,0 1.274804,0.68212 0.45528,0.500215 0.637389,1.818966 0.591871,-0.0227 0.819511,0.09093 0.728463,0.272846 1.047164,0.591167 0.318689,0.295571 0.318689,0.7730599 0,0.9094769 -0.364219,1.2732749 -5.486174,4.979432 -10.835764,12.09615 3.369101,4.638373 6.738207,8.32178 0.386984,0.409275 0.386984,0.954965 0,1.11412 -0.68292,1.705275 -0.455292,0.386536 -1.297556,0.432013 -0.04558,0.386523 -0.364231,1.182321 -0.546341,1.318763 -1.274791,1.318763 -0.819512,0 -1.502444,-0.545691 -0.18211,0.409263 -0.50081,0.65937 -0.819507,0.613905 -1.434143,0.613905 -0.523576,0 -1.115448,-0.636643 -2.026006,-2.160025 -4.780476,-6.502814 -5.235768,5.934384 -7.239022,9.003899 -0.386985,0.591167 -0.865043,0.591167 h -0.04558 q -0.409762,0 -0.796758,-0.818536 -0.341454,-0.704845 -0.386985,-1.000429 -0.455279,0.272845 -0.865041,0.272845 -0.569106,0 -1.229261,-0.68212 -0.8195113,-0.795797 -0.8195113,-1.182334 0,-0.613893 0.6829203,-1.637073 -0.204875,-0.06822 -0.4097503,-0.363785 -0.409761,-0.545691 -0.409761,-1.091382 0,-0.477476 0.5463403,-1.182334 2.959344,-4.001729 7.421133,-8.821994 -2.777235,-4.297326 -5.030895,-10.368126 -0.50081,-1.386965 -0.50081,-2.023609 0,-0.591167 0.523575,-1.7052868 0.364232,-0.727583 0.865042,-0.727583 0.591872,0 1.684553,0.8867509 0.02273,-0.3183219 0.273171,-0.8867509 0.523575,-1.136858 0.910573,-1.136858 0.978854,0 1.274791,0.591167 2.413003,4.4564788 5.827639,8.6855768 5.258522,-6.002599 10.926812,-10.9592928 0.273171,-0.272846 0.59186,-0.272846 z" style="font-style:normal;font-variant:normal;font-weight:normal;font-stretch:normal;font-size:37.33333206px;line-height:1.25;font-family:'Latin Modern Roman';font-variant-ligatures:normal;font-variant-position:normal;font-variant-caps:normal;font-variant-numeric:normal;font-variant-alternates:normal;font-feature-settings:normal;text-indent:0;text-align:end;text-decoration:none;text-decoration-line:none;text-decoration-style:solid;text-decoration-color:#000000;letter-spacing:0px;word-spacing:0px;text-transform:none;writing-mode:lr-tb;direction:ltr;text-orientation:mixed;dominant-baseline:auto;baseline-shift:baseline;text-anchor:end;white-space:normal;shape-padding:0;opacity:1;vector-effect:none;fill:#c71807;fill-opacity:1;stroke:#820000;stroke-width:1;stroke-linecap:butt;stroke-linejoin:miter;stroke-miterlimit:4;stroke-dasharray:none;stroke-dashoffset:0;stroke-opacity:1" id="path3431" inkscape:connector-curvature="0"/>
  <path sodipodi:nodetypes="ccccccccccccccsccccccccscccccccccccccccccccccccccccccccccccccccccccccccscccccccccccccccccccc" inkscape:connector-curvature="0" id="path868" d="m 34.838502,6.4554155 c 0.101741,0.00706 0.212885,0.019658 0.478516,0.3144531 l 0.0039,0.00586 c 0.01822,0.020578 0.277918,0.5075047 0.384766,1.28125 l 0.126953,0.8964843 0.902344,-0.035156 c 0.148087,-0.00568 0.269239,0.00382 0.349609,0.013672 0.03139,0.00385 0.05091,0.00655 0.07031,0.00977 l 0.002,0.00195 0.0078,0.00391 c 0.404917,0.1516615 0.666018,0.3359702 0.691407,0.3613282 l 0.02539,0.02539 h 0.002 v 0.002 c 0.03981,0.02922 -0.002,-0.090467 -0.002,0.03906 0,0.464588 -0.17515,0.6691689 -0.07031,0.564453 l 0.002,0.002 C 34.111789,13.306035 30.468237,17.371529 26.881546,22.143012 l -0.441406,0.591797 0.433594,0.595703 c 2.265232,3.118633 4.533467,5.922786 6.808593,8.410157 l 0.0078,0.0078 0.0039,0.0039 c 0.121512,0.128511 0.113281,0.114578 0.113281,0.267579 0,0.547799 -0.105022,0.744009 -0.335937,0.945312 -0.08665,0.07218 -0.285261,0.171009 -0.699219,0.193359 l -0.839844,0.04687 -0.09766,0.835938 c -0.0043,0.03642 -0.104911,0.438569 -0.300781,0.927734 -0.148919,0.355072 -0.311283,0.59404 -0.38086,0.666016 -0.0088,0.0091 -0.0012,0.0016 -0.0078,0.0078 -0.308658,-0.0076 -0.540015,-0.07565 -0.833984,-0.310546 l -1.011719,-0.808594 -0.527344,1.183594 c -0.06371,0.143185 -0.119272,0.209707 -0.199219,0.273437 -0.436375,0.322443 -0.777372,0.40625 -0.822265,0.40625 0.09937,0 -0.09044,-0.0039 -0.382813,-0.318359 l -0.002,-0.002 c -1.276258,-1.360681 -2.851048,-3.490851 -4.667969,-6.355468 l -0.710937,-1.125 -0.882813,1 c -3.466849,3.929436 -5.845104,6.889184 -7.24414,9.017578 v -0.0039 l -0.08203,-0.08203 c -0.08417,-0.178973 -0.156562,-0.34563 -0.201171,-0.46289 -0.05118,-0.134539 -0.08216,-0.285886 -0.06641,-0.183594 l -0.226562,-1.470703 -1.277344,0.763672 c -0.190826,0.11436 -0.296898,0.130859 -0.349609,0.130859 0.05215,0 -0.176276,-0.0528 -0.490235,-0.361328 l -0.02344,-0.03516 -0.04297,-0.0293 c -0.219607,-0.216399 -0.382531,-0.403881 -0.457031,-0.509766 0.01516,-0.04088 0.108784,-0.452938 0.478515,-1.007812 v -0.002 l 0.730469,-1.089844 -1.132812,-0.376953 c -0.0071,-0.0086 -0.0068,-0.0059 -0.01758,-0.02148 l -0.0059,-0.0078 -0.01172,-0.01563 -0.0059,-0.0078 h 0.002 c -0.17979,-0.239433 -0.208984,-0.368183 -0.208984,-0.490234 0,0.08073 2.82e-4,-0.0075 0.05078,-0.117188 0.04876,-0.105951 0.139399,-0.259422 0.275391,-0.4375 l 0.05469,-0.05469 0.0098,-0.0293 c 1.938894,-2.61739 4.371344,-5.512151 7.310547,-8.6875 l 0.527344,-0.570312 -0.421876,-0.652344 c -1.801246,-2.787139 -3.449484,-6.176161 -4.93164,-10.167969 -0.31372,-0.86993 -0.439453,-1.55183 -0.439453,-1.679687 0,-0.05157 0.113532,-0.603116 0.427734,-1.2734379 0.03737,-0.07156 0.04165,-0.0722 0.06445,-0.105469 0.04541,0.01936 0.08278,0.03235 0.144532,0.06445 0.203357,0.105729 0.484083,0.283155 0.80664,0.5449219 l 1.490234,1.210938 0.136719,-1.9179689 c -0.0043,0.06055 0.0511,-0.2314388 0.183594,-0.5390625 l 0.0039,-0.00586 c 4.36e-4,-9.994e-4 -4.37e-4,-9.532e-4 0,-0.00195 0.122328,-0.2640167 0.218636,-0.4066226 0.291016,-0.5136719 0.01696,0.00417 0.08357,0.00717 0.08984,0.00977 l 0.002,0.00195 0.0078,0.015625 0.0039,0.00781 C 18.1989,11.469968 20.176991,14.41625 22.48892,17.279621 l 0.746094,0.923828 0.783203,-0.894531 v -0.002 C 27.492301,13.341344 31.099584,9.7259261 34.838529,6.4553556 Z" style="color:#000000;font-style:normal;font-variant:normal;font-weight:normal;font-stretch:normal;font-size:37.33333206px;line-height:1.25;font-family:'Latin Modern Roman';font-variant-ligatures:normal;font-variant-position:normal;font-variant-caps:normal;font-variant-numeric:normal;font-variant-alternates:normal;font-feature-settings:normal;text-indent:0;text-align:end;text-decoration:none;text-decoration-line:none;text-decoration-style:solid;text-decoration-color:#000000;letter-spacing:0px;word-spacing:0px;text-transform:none;writing-mode:lr-tb;direction:ltr;text-orientation:mixed;dominant-baseline:auto;baseline-shift:baseline;text-anchor:end;white-space:normal;shape-padding:0;clip-rule:nonzero;display:inline;overflow:visible;visibility:visible;opacity:0.39200003;isolation:auto;mix-blend-mode:normal;color-interpolation:sRGB;color-interpolation-filters:linearRGB;solid-color:#000000;solid-opacity:1;vector-effect:none;fill:none;fill-opacity:1;fill-rule:nonzero;stroke:url(#g);stroke-width:1;stroke-linecap:round;stroke-linejoin:round;stroke-miterlimit:4;stroke-dasharray:none;stroke-dashoffset:0;stroke-opacity:1;color-rendering:auto;image-rendering:auto;shape-rendering:auto;text-rendering:auto;enable-background:accumulate;font-variant-east_asian:normal"/>
  <path id="path31" d="M 34.835938 5.9550781 C 34.715973 5.9556405 34.60021 5.9993121 34.509766 6.078125 C 30.753333 9.3639924 27.13045 12.99525 23.642578 16.976562 C 23.564358 17.065203 23.520072 17.178685 23.517578 17.296875 L 23.517578 17.121094 L 23.25 17.427734 L 22.876953 16.964844 L 22.878906 16.964844 C 20.586557 14.12578 18.625325 11.20793 17.001953 8.2109375 L 16.994141 8.1953125 C 16.969341 8.1452505 16.936334 8.0996985 16.896484 8.0605469 L 16.894531 8.0585938 C 16.848871 8.0143458 16.795153 7.9792149 16.736328 7.9550781 C 16.730028 7.9524781 16.350414 7.866847 16.574219 7.921875 C 16.371086 7.871988 16.158366 7.953803 16.041016 8.1269531 C 15.976726 8.2220401 15.865159 8.4066798 15.748047 8.6445312 L 15.744141 8.6503906 L 15.742188 8.6542969 C 15.730557 8.6724829 15.720118 8.6914025 15.710938 8.7109375 C 15.709637 8.7135275 15.708331 8.71614 15.707031 8.71875 C 15.705031 8.72263 15.703072 8.7265398 15.701172 8.7304688 C 15.622202 8.913813 15.570149 9.0823777 15.537109 9.1972656 C 15.523819 9.2434926 15.515556 9.2717537 15.509766 9.2929688 C 15.492796 9.3374687 15.482276 9.3841648 15.478516 9.4316406 C 15.477961 9.4394506 15.476863 9.4487827 15.476562 9.4648438 L 15.410156 10.390625 L 14.666016 9.7851562 C 14.3192 9.5036018 14.012825 9.3100087 13.773438 9.1855469 C 13.687418 9.1408329 13.624301 9.1176607 13.595703 9.1054688 C 13.376648 9.0112797 13.121563 9.0848618 12.986328 9.28125 C 12.978328 9.292917 12.934675 9.355092 12.890625 9.4394531 C 12.887925 9.4459031 12.885313 9.4524204 12.882812 9.4589844 C 12.713168 9.8209084 12.597333 10.147327 12.523438 10.396484 C 12.486488 10.521063 12.459746 10.625144 12.441406 10.707031 C 12.432206 10.747971 12.425492 10.784441 12.419922 10.816406 C 12.414322 10.848366 12.40625 10.845186 12.40625 10.943359 C 12.40625 11.057273 12.420563 11.1165 12.439453 11.224609 C 12.458343 11.332718 12.485997 11.464658 12.523438 11.621094 C 12.598318 11.933966 12.711228 12.338837 12.875 12.792969 C 12.875661 12.794269 12.876253 12.795575 12.876953 12.796875 C 14.369069 16.815507 16.031358 20.236959 17.857422 23.0625 L 18.068359 23.388672 L 17.804688 23.673828 C 16.031483 25.589497 14.463338 27.391088 13.052734 29.107422 C 16.289951 28.235952 20.460849 25.74707 24.384766 21.298828 C 27.032437 18.297366 29.698957 17.044352 32.185547 16.421875 C 34.158815 14.182182 36.146954 12.13342 38.150391 10.3125 C 38.27491 10.1987 38.333662 10.02979 38.306641 9.8632812 C 38.329061 9.7754282 38.345222 9.6666424 38.357422 9.5351562 C 38.365822 9.5171032 38.37095 9.5064026 38.375 9.4941406 C 38.3843 9.4658486 38.364994 9.4684415 38.371094 9.4453125 C 38.372394 9.4149915 38.380859 9.406946 38.380859 9.375 C 38.380859 9.37318 38.366851 9.4198031 38.369141 9.4238281 C 38.383081 9.3619141 38.363139 9.3195021 38.355469 9.28125 L 38.382812 9.3339844 C 38.383201 9.2648114 38.369237 9.1963108 38.341797 9.1328125 C 38.333497 9.1179575 38.345538 9.0975911 38.335938 9.0800781 C 38.326637 9.0629161 38.315981 9.0443645 38.300781 9.0234375 C 38.285591 9.0025115 38.240644 8.95351 38.240234 8.953125 C 38.239829 8.9527396 38.129331 8.8732739 38.128906 8.8730469 L 38.208984 8.9550781 C 38.198114 8.9442221 38.201789 8.9514784 38.193359 8.9433594 C 38.188859 8.9400294 38.184258 8.9367737 38.179688 8.9335938 C 38.139198 8.8967938 38.112841 8.8763831 38.087891 8.8613281 C 38.057991 8.8522181 38.03767 8.8454094 38 8.8339844 L 38.048828 8.8339844 C 38.006929 8.8063766 37.960132 8.77641 37.900391 8.7421875 C 37.788316 8.6779865 37.623139 8.6027865 37.451172 8.53125 L 37.503906 8.5839844 C 37.473916 8.5552004 37.440457 8.5302686 37.404297 8.5097656 C 37.378647 8.4995356 37.366634 8.4885496 37.339844 8.4785156 C 37.306494 8.4650556 37.271784 8.4552337 37.236328 8.4492188 C 37.208018 8.4445188 37.179101 8.4397889 37.144531 8.4355469 C 37.042458 8.4230349 36.894704 8.4110697 36.714844 8.4179688 L 36.263672 8.4355469 L 36.201172 7.9882812 L 36.201172 7.9863281 C 36.142144 7.5602047 36.040206 7.2125267 35.949219 6.9628906 C 35.903643 6.837848 35.861433 6.7369214 35.826172 6.6621094 C 35.808542 6.6247034 35.793717 6.5951174 35.779297 6.5683594 C 35.772097 6.5549804 35.764439 6.5416498 35.755859 6.5273438 C 35.751559 6.5201937 35.747464 6.5128561 35.740234 6.5019531 C 35.739697 6.5011444 35.737128 6.4992169 35.736328 6.4980469 L 35.732422 6.4921875 C 35.728022 6.4855675 35.72342 6.4790572 35.71875 6.4726562 C 35.71185 6.4637863 35.706825 6.457808 35.703125 6.453125 C 35.698025 6.447145 35.69285 6.4412819 35.6875 6.4355469 C 35.533839 6.2650178 35.407887 6.1505137 35.259766 6.0683594 C 35.189458 6.0293635 35.144184 6.032657 35.076172 6.015625 C 35.013413 5.9818407 34.944157 5.9618632 34.873047 5.9570312 C 34.860707 5.9559213 34.848327 5.9552681 34.835938 5.9550781 z " style="opacity:0.625;fill:url(#f);fill-rule:evenodd;stroke-width:1"/>
</svg>