<?xml version="1.0" encoding="UTF-8" standalone="no"?>
<!-- Created with Inkscape (http://www.inkscape.org/) -->

<svg
   width="67.733337mm"
   height="67.733337mm"
   viewBox="0 0 67.733337 67.733337"
   version="1.1"
   id="svg8"
   inkscape:version="1.4 (e7c3feb100, 2024-10-09)"
   sodipodi:docname="error-icon.svg"
   xmlns:inkscape="http://www.inkscape.org/namespaces/inkscape"
   xmlns:sodipodi="http://sodipodi.sourceforge.net/DTD/sodipodi-0.dtd"
   xmlns:xlink="http://www.w3.org/1999/xlink"
   xmlns="http://www.w3.org/2000/svg"
   xmlns:svg="http://www.w3.org/2000/svg"
   xmlns:rdf="http://www.w3.org/1999/02/22-rdf-syntax-ns#"
   xmlns:cc="http://creativecommons.org/ns#"
   xmlns:dc="http://purl.org/dc/elements/1.1/">
  <defs
     id="defs2">
    <linearGradient
       xlink:href="#a"
       gradientUnits="userSpaceOnUse"
       gradientTransform="matrix(0.95799953,0,0,0.67158146,64.045833,184.89211)"
       y2="6.0999999"
       y1="32.757"
       x2="6.3579998"
       x1="11.355"
       id="f" />
    <linearGradient
       id="a">
      <stop
         id="stop12"
         stop-opacity="0"
         stop-color="#f5a108"
         offset="0" />
      <stop
         id="stop14"
         stop-opacity=".743"
         stop-color="#fefdc3"
         offset="1" />
    </linearGradient>
    <linearGradient
       xlink:href="#c"
       gradientUnits="userSpaceOnUse"
       gradientTransform="matrix(0.43008338,0,0,0.46724766,64.759941,187.46234)"
       y2="-6.8889999"
       y1="29.173"
       x2="17.445"
       x1="34.798"
       id="g" />
    <linearGradient
       id="c">
      <stop
         id="stop2"
         stop-color="#fff"
         offset="0" />
      <stop
         id="stop4"
         stop-opacity="0"
         stop-color="#fff"
         offset="1" />
    </linearGradient>
    <radialGradient
       xlink:href="#b"
       gradientUnits="userSpaceOnUse"
       gradientTransform="matrix(1.0868294,0,0,0.32524991,55.030458,197.12246)"
       fy="25.531"
       fx="17.313"
       r="9.6879997"
       cy="25.531"
       cx="17.313"
       id="d" />
    <linearGradient
       id="b">
      <stop
         id="stop7"
         offset="0" />
      <stop
         id="stop9"
         stop-opacity="0"
         offset="1" />
    </linearGradient>
  </defs>
  <sodipodi:namedview
     id="base"
     pagecolor="#ffffff"
     bordercolor="#666666"
     borderopacity="1.0"
     inkscape:pageopacity="0.0"
     inkscape:pageshadow="2"
     inkscape:zoom="1.4"
     inkscape:cx="-13.928571"
     inkscape:cy="112.14286"
     inkscape:document-units="mm"
     inkscape:current-layer="layer1"
     showgrid="false"
     inkscape:window-width="1296"
     inkscape:window-height="775"
     inkscape:window-x="0"
     inkscape:window-y="0"
     inkscape:window-maximized="0"
     inkscape:showpageshadow="false"
     units="px"
     fit-margin-top="0"
     fit-margin-left="0"
     fit-margin-right="0"
     fit-margin-bottom="0"
     inkscape:pagecheckerboard="0"
     inkscape:deskcolor="#d1d1d1" />
  <metadata
     id="metadata5">
    <rdf:RDF>
      <cc:Work
         rdf:about="">
        <dc:format>image/svg+xml</dc:format>
        <dc:type
           rdf:resource="http://purl.org/dc/dcmitype/StillImage" />
      </cc:Work>
    </rdf:RDF>
  </metadata>
  <g
     inkscape:label="Layer 1"
     inkscape:groupmode="layer"
     id="layer1"
     transform="translate(-42.106554,-153.8982)">
    <circle
       style="fill:#c71806;fill-opacity:1;stroke:none;stroke-width:0.535;stroke-miterlimit:4;stroke-dasharray:none"
       id="path875"
       cx="75.973221"
       cy="187.76486"
       r="33.866669" />
    <path
       style="fill:#ffffff;stroke-width:0.13229167"
       d="m 72.543594,214.67719 c -4.744093,-0.60875 -9.281981,-2.49991 -13.241953,-5.51858 -1.29157,-0.98455 -3.714943,-3.42363 -4.772834,-4.80375 -2.96241,-3.86476 -4.804479,-8.2508 -5.41218,-12.88661 -0.260164,-1.98464 -0.258719,-5.63349 0.0029,-7.44738 1.308078,-9.0677 7.01463,-16.8454 15.20915,-20.72918 3.811512,-1.80647 7.300266,-2.57114 11.730683,-2.57114 7.165903,0 13.5265,2.56749 18.680882,7.54063 2.483054,2.39575 4.148141,4.66808 5.573968,7.60677 1.92868,3.9751 2.70979,7.43276 2.70979,11.99526 0,6.00619 -1.7345,11.24407 -5.336957,16.11672 -1.070527,1.44797 -3.161747,3.64749 -4.549468,4.78507 -3.806562,3.12041 -8.658642,5.23183 -13.473174,5.86296 -1.663528,0.21807 -5.593318,0.24524 -7.120854,0.0492 z m 10.041381,-4.86547 c 2.898391,-0.91366 5.260364,-2.14146 7.540624,-3.91979 1.212494,-0.9456 3.308223,-3.06144 4.186916,-4.22711 2.38328,-3.16162 4.004927,-7.12196 4.482067,-10.94597 0.229814,-1.84182 0.09634,-5.73827 -0.2545,-7.4296 -0.9294,-4.48046 -2.931647,-8.26499 -6.086007,-11.50342 -1.966575,-2.01898 -3.756882,-3.34972 -6.060203,-4.50458 -3.495001,-1.75236 -6.489835,-2.46043 -10.423481,-2.46442 -4.164073,-0.004 -7.815325,0.95024 -11.429055,2.98766 -3.289753,1.85476 -6.690628,5.25952 -8.553227,8.563 -1.371786,2.43299 -2.37583,5.32029 -2.767595,7.95869 -0.256867,1.72991 -0.261933,5.16508 -0.01006,6.82145 0.504067,3.31489 1.761474,6.59111 3.584314,9.33904 0.995409,1.50058 0.964154,1.48393 1.842248,0.98153 1.570774,-0.8987 1.980396,-1.33342 2.836087,-3.00984 1.000624,-1.96036 2.070459,-3.6735 3.037094,-4.86332 1.115822,-1.37347 1.269228,-1.61793 1.828988,-2.9147 0.281654,-0.65249 0.786977,-1.61074 1.122938,-2.12943 l 0.61084,-0.94309 -0.79023,-0.77671 c -1.049647,-1.03168 -1.922751,-2.2016 -2.087012,-2.79651 -0.167761,-0.60758 0.03021,-0.9466 0.818744,-1.40207 0.797354,-0.46057 1.367585,-0.5929 3.498657,-0.81193 1.037629,-0.10665 2.164153,-0.30199 2.518962,-0.43681 0.353024,-0.13414 1.407825,-0.70824 2.344001,-1.27579 2.702947,-1.63863 2.931619,-1.72344 4.552111,-1.68831 1.368686,0.0297 1.371262,0.0291 2.182813,-0.46143 1.700674,-1.02802 4.14305,-2.88289 7.357044,-5.58733 0.61632,-0.5186 1.21002,-0.92569 1.31934,-0.90464 0.45462,0.0876 1.289567,2.13636 1.416407,3.47562 0.07693,0.81225 -0.08023,1.6155 -0.562014,2.87261 -0.13146,0.34301 -0.19208,0.67043 -0.134706,0.7276 0.13774,0.13726 0.610706,-0.4535 0.610706,-0.76279 0,-0.39435 0.261127,-0.43936 0.616327,-0.10623 0.258235,0.24218 0.480842,0.31151 1.000202,0.31151 0.567073,0 0.707447,0.0526 0.928773,0.3479 0.375574,0.50112 0.463647,1.86688 0.176201,2.73231 -0.279641,0.84191 -1.124801,1.81287 -1.891829,2.17341 -0.686334,0.32262 -2.075841,1.67928 -2.726081,2.66164 -0.248906,0.37604 -0.715586,1.15995 -1.037066,1.74204 -0.321487,0.58208 -0.86074,1.46154 -1.19834,1.95436 -0.664294,0.96972 -1.233147,2.3224 -1.782214,4.23798 -0.322553,1.1253 -0.34962,1.41826 -0.362953,3.92797 -0.01613,3.0317 -0.172894,3.77561 -0.9925,4.7091 -0.931805,1.06126 -1.861937,3.39186 -1.940127,4.8613 -0.04935,0.92751 -0.192246,1.83164 -0.395304,2.50122 -0.08942,0.29484 0.07752,0.2914 1.072102,-0.0221 z"
       id="path847"
       inkscape:connector-curvature="0" />
    <path
       sodipodi:type="star"
       style="fill:#000000;fill-opacity:1;stroke:none;stroke-width:1.5;stroke-miterlimit:4;stroke-dasharray:none"
       id="path814"
       sodipodi:sides="4"
       sodipodi:cx="18.854025"
       sodipodi:cy="172.98837"
       sodipodi:r1="1.6036172"
       sodipodi:r2="1.1339285"
       sodipodi:arg1="1.5707963"
       sodipodi:arg2="2.3561945"
       inkscape:flatsided="true"
       inkscape:rounded="0"
       inkscape:randomized="0"
       d="m 18.854025,174.59199 -1.603617,-1.60362 1.603617,-1.60361 1.603617,1.60361 z"
       transform="matrix(0.23203125,0.40188991,-0.99392962,0.57384553,246.21921,73.888081)" />
    <path
       d="m 80.208355,189.13822 q 0.314287,0 0.606899,0.3528 0.216745,0.25872 0.303442,0.9408 0.281773,-0.0117 0.390146,0.0471 0.346801,0.14113 0.498525,0.30575 0.15172,0.15286 0.15172,0.39984 0,0.47038 -0.173402,0.65855 -2.611813,2.57541 -5.158604,6.25625 1.603935,2.39901 3.207873,4.30411 0.184231,0.21168 0.184231,0.49392 0,0.57622 -0.325118,0.88197 -0.216753,0.19994 -0.617731,0.22345 -0.0217,0.19992 -0.173401,0.61151 -0.260098,0.68207 -0.606893,0.68207 -0.390146,0 -0.71527,-0.28224 -0.08669,0.21169 -0.238422,0.34104 -0.390145,0.31752 -0.682757,0.31752 -0.249259,0 -0.531033,-0.32929 -0.964524,-1.11717 -2.27585,-3.36331 -2.492602,3.06933 -3.446294,4.65691 -0.184233,0.30575 -0.411823,0.30575 h -0.0217 q -0.195076,0 -0.379314,-0.42335 -0.162552,-0.36456 -0.184233,-0.51742 -0.216746,0.14113 -0.411821,0.14113 -0.270936,0 -0.585217,-0.3528 -0.390146,-0.4116 -0.390146,-0.61152 0,-0.3175 0.325118,-0.84671 -0.09754,-0.0352 -0.19507,-0.18805 -0.195076,-0.28224 -0.195076,-0.56447 0,-0.24697 0.260098,-0.61153 1.40886,-2.06973 3.532993,-4.56282 -1.322163,-2.22262 -2.395068,-5.36249 -0.238422,-0.71736 -0.238422,-1.04665 0,-0.30575 0.249259,-0.88199 0.173401,-0.3763 0.411823,-0.3763 0.281773,0 0.801967,0.45862 0.0108,-0.16459 0.130056,-0.45862 0.249259,-0.588 0.433497,-0.588 0.466006,0 0.606893,0.30575 1.148763,2.30493 2.774376,4.49227 2.503434,-3.10459 5.201948,-5.66825 0.130055,-0.14113 0.281767,-0.14113 z"
       style="font-style:normal;font-variant:normal;font-weight:normal;font-stretch:normal;font-size:37.3333px;line-height:1.25;font-family:'Latin Modern Roman';font-variant-ligatures:normal;font-variant-position:normal;font-variant-caps:normal;font-variant-numeric:normal;font-variant-alternates:normal;font-feature-settings:normal;text-indent:0;text-align:end;text-decoration:none;text-decoration-line:none;text-decoration-style:solid;text-decoration-color:#000000;letter-spacing:0px;word-spacing:0px;text-transform:none;writing-mode:lr-tb;direction:ltr;text-orientation:mixed;dominant-baseline:auto;baseline-shift:baseline;text-anchor:end;white-space:normal;shape-padding:0;vector-effect:none;fill:#c71806;fill-opacity:1;stroke:none;stroke-width:0.496214;stroke-linecap:butt;stroke-linejoin:miter;stroke-miterlimit:4;stroke-dasharray:none;stroke-dashoffset:0;stroke-opacity:1"
       id="path3431"
       inkscape:connector-curvature="0" />
  </g>
</svg>
